<svg width="21" height="24" viewBox="0 0 21 24" fill="none" xmlns="http://www.w3.org/2000/svg">
<path d="M18.463 7.7128L9.36297 1.0358C8.57067 0.454282 7.63269 0.103747 6.65319 0.0231148C5.6737 -0.0575172 4.69102 0.13491 3.81429 0.579028C2.93755 1.02315 2.20106 1.70158 1.68661 2.53898C1.17215 3.37638 0.899861 4.33999 0.899973 5.3228V18.6768C0.898073 19.66 1.16914 20.6244 1.68298 21.4627C2.19683 22.3009 2.93328 22.9801 3.81031 23.4245C4.68734 23.869 5.67053 24.0612 6.65037 23.9799C7.63021 23.8985 8.56823 23.5468 9.35997 22.9638L18.465 16.2868C19.1385 15.7932 19.6863 15.1478 20.0638 14.403C20.4414 13.6582 20.6382 12.8349 20.6382 11.9998C20.6382 11.1647 20.4414 10.3414 20.0638 9.59661C19.6863 8.85179 19.1385 8.20641 18.465 7.7128H18.463ZM16.689 13.8678L7.58897 20.5448C7.24372 20.7985 6.83488 20.9515 6.40789 20.9868C5.98091 21.0221 5.55249 20.9383 5.17026 20.7448C4.78802 20.5512 4.46694 20.2555 4.24269 19.8904C4.01844 19.5253 3.89981 19.1052 3.89997 18.6768V5.3228C3.89539 4.89373 4.01218 4.47211 4.23689 4.10656C4.4616 3.74101 4.78506 3.44643 5.16997 3.2568C5.49586 3.08947 5.85664 3.00142 6.22297 2.9998C6.7139 3.00222 7.19117 3.16166 7.58497 3.4548L16.685 10.1318C16.9784 10.3469 17.2171 10.6281 17.3816 10.9527C17.5461 11.2772 17.6319 11.6359 17.6319 11.9998C17.6319 12.3637 17.5461 12.7224 17.3816 13.0469C17.2171 13.3715 16.9784 13.6527 16.685 13.8678H16.689Z" fill="#737373"/>
</svg>
